<?xml version="1.0" encoding="UTF-8" standalone="no"?>
<!DOCTYPE svg PUBLIC "-//W3C//DTD SVG 1.0//EN" "http://www.w3.org/TR/2001/REC-SVG-20010904/DTD/svg10.dtd">

<svg xmlns="http://www.w3.org/2000/svg" xmlns:xlink="http://www.w3.org/1999/xlink" width="17.32cm" height="12.35cm" viewBox="0 0 491 350">
<title></title>
<desc>Picture generated by wxSVG v0101</desc>

<g style="fill:black; stroke:black; stroke-width:1">
</g>
<g style="stroke-width:1; stroke-linecap:round; stroke-linejoin:round; fill:#FFFFFF; fill-opacity:1.00; stroke:#000000; stroke-opacity:0.0;" transform="translate(0 0) scale(1.00 1.00)">
  <rect x="0" y="0" width="491" height="350" rx="0.00" shape-rendering="auto"  />
</g>
<g style="stroke-width:1; stroke-linecap:round; stroke-linejoin:round; fill:#FFFFFF; fill-opacity:1.00; stroke:#000000; stroke-opacity:1.00;" transform="translate(0 0) scale(1.00 1.00)">
</g>
<g style="stroke-width:1; stroke-linecap:round; stroke-linejoin:round; fill:#000000; fill-opacity:0.0; stroke:#0000FF; stroke-opacity:1.00;" transform="translate(-184 -18) scale(0.81 0.81)">
  <path d="M558.26 346.77 A96.00 96.00 0 0 0 621.98 269.96" shape-rendering="auto" />
</g>
<g style="stroke-width:1; stroke-linecap:round; stroke-linejoin:round; fill:#0000FF; fill-opacity:1.00; stroke:#0000FF; stroke-opacity:1.00;" transform="translate(-184 -18) scale(0.81 0.81)">
  <polygon points="623 256 617 269 625 270 623 256 " shape-rendering="auto"   style="fill-rule:evenodd;"/>
</g>
<g style="stroke-width:1; stroke-linecap:round; stroke-linejoin:round; fill:#000000; fill-opacity:0.0; stroke:#0000FF; stroke-opacity:1.00;" transform="translate(-184 -18) scale(0.81 0.81)">
  <path d="M652.20 234.32 A75.00 75.00 0 0 0 683.22 147.49" shape-rendering="auto" />
</g>
<g style="stroke-width:1; stroke-linecap:round; stroke-linejoin:round; fill:#0000FF; fill-opacity:1.00; stroke:#0000FF; stroke-opacity:1.00;" transform="translate(-184 -18) scale(0.81 0.81)">
  <polygon points="677 135 679 149 686 145 677 135 " shape-rendering="auto"   style="fill-rule:evenodd;"/>
</g>
<g style="stroke-width:1; stroke-linecap:round; stroke-linejoin:round; fill:#000000; fill-opacity:0.0; stroke:#0000FF; stroke-opacity:1.00;" transform="translate(-184 -18) scale(0.81 0.81)">
  <path d="M782.58 124.14 A74.00 74.00 0 0 0 687.93 94.84" shape-rendering="auto" />
</g>
<g style="stroke-width:1; stroke-linecap:round; stroke-linejoin:round; fill:#0000FF; fill-opacity:1.00; stroke:#0000FF; stroke-opacity:1.00;" transform="translate(-184 -18) scale(0.81 0.81)">
  <polygon points="788 137 786 122 778 125 788 137 " shape-rendering="auto"   style="fill-rule:evenodd;"/>
</g>
<g style="stroke-width:1; stroke-linecap:round; stroke-linejoin:round; fill:#000000; fill-opacity:0.0; stroke:#0000FF; stroke-opacity:1.00;" transform="translate(-184 -18) scale(0.81 0.81)">
  <path d="M763.38 233.26 A173.00 173.00 0 0 0 784.81 190.62" shape-rendering="auto" />
</g>
<g style="stroke-width:1; stroke-linecap:round; stroke-linejoin:round; fill:#0000FF; fill-opacity:1.00; stroke:#0000FF; stroke-opacity:1.00;" transform="translate(-184 -18) scale(0.81 0.81)">
  <polygon points="788 177 780 189 788 191 788 177 " shape-rendering="auto"   style="fill-rule:evenodd;"/>
</g>
<g style="stroke-width:1; stroke-linecap:round; stroke-linejoin:round; fill:#000000; fill-opacity:0.0; stroke:#0000FF; stroke-opacity:1.00;" transform="translate(-184 -18) scale(0.81 0.81)">
  <path d="M500.36 68.00 A105.00 105.00 0 0 0 435.04 34.69" shape-rendering="auto" />
</g>
<g style="stroke-width:1; stroke-linecap:round; stroke-linejoin:round; fill:#0000FF; fill-opacity:1.00; stroke:#0000FF; stroke-opacity:1.00;" transform="translate(-184 -18) scale(0.81 0.81)">
  <polygon points="509 79 503 65 497 70 509 79 " shape-rendering="auto"   style="fill-rule:evenodd;"/>
</g>
<g style="stroke-width:1; stroke-linecap:round; stroke-linejoin:round; fill:#000000; fill-opacity:0.0; stroke:#0000FF; stroke-opacity:1.00;" transform="translate(-184 -18) scale(0.81 0.81)">
  <path d="M647.11 82.88 A72.00 72.00 0 0 0 538.60 78.62" shape-rendering="auto" />
</g>
<g style="stroke-width:1; stroke-linecap:round; stroke-linejoin:round; fill:#0000FF; fill-opacity:1.00; stroke:#0000FF; stroke-opacity:1.00;" transform="translate(-184 -18) scale(0.81 0.81)">
  <polygon points="654 95 650 80 643 84 654 95 " shape-rendering="auto"   style="fill-rule:evenodd;"/>
</g>
<g style="stroke-width:1; stroke-linecap:round; stroke-linejoin:round; fill:#000000; fill-opacity:0.0; stroke:#0000FF; stroke-opacity:1.00;" transform="translate(-184 -18) scale(0.81 0.81)">
  <path d="M466.14 434.41 A70.00 70.00 0 0 0 510.22 390.69" shape-rendering="auto" />
</g>
<g style="stroke-width:1; stroke-linecap:round; stroke-linejoin:round; fill:#0000FF; fill-opacity:1.00; stroke:#0000FF; stroke-opacity:1.00;" transform="translate(-184 -18) scale(0.81 0.81)">
  <polygon points="513 377 506 389 514 391 513 377 " shape-rendering="auto"   style="fill-rule:evenodd;"/>
</g>
<g style="stroke-width:1; stroke-linecap:round; stroke-linejoin:round; fill:#000000; fill-opacity:0.0; stroke:#0000FF; stroke-opacity:1.00;" transform="translate(-184 -18) scale(0.81 0.81)">
  <path d="M628.95 220.38 A58.00 58.00 0 0 0 589.04 162.88" shape-rendering="auto" />
</g>
<g style="stroke-width:1; stroke-linecap:round; stroke-linejoin:round; fill:#0000FF; fill-opacity:1.00; stroke:#0000FF; stroke-opacity:1.00;" transform="translate(-184 -18) scale(0.81 0.81)">
  <polygon points="626 234 632 221 625 219 626 234 " shape-rendering="auto"   style="fill-rule:evenodd;"/>
</g>
<g style="stroke-width:1; stroke-linecap:round; stroke-linejoin:round; fill:#000000; fill-opacity:0.0; stroke:#0000FF; stroke-opacity:1.00;" transform="translate(-184 -18) scale(0.81 0.81)">
  <path d="M314 209 L348 234" shape-rendering="auto" />
</g>
<g style="stroke-width:1; stroke-linecap:round; stroke-linejoin:round; fill:#0000FF; fill-opacity:1.00; stroke:#0000FF; stroke-opacity:1.00;" transform="translate(-184 -18) scale(0.81 0.81)">
  <polygon points="360 243 351 231 346 237 360 243 " shape-rendering="auto"   style="fill-rule:evenodd;"/>
</g>
<g style="stroke-width:1; stroke-linecap:round; stroke-linejoin:round; fill:#000000; fill-opacity:0.0; stroke:#0000FF; stroke-opacity:1.00;" transform="translate(-184 -18) scale(0.81 0.81)">
  <path d="M316 286 L336 281" shape-rendering="auto" />
</g>
<g style="stroke-width:1; stroke-linecap:round; stroke-linejoin:round; fill:#0000FF; fill-opacity:1.00; stroke:#0000FF; stroke-opacity:1.00;" transform="translate(-184 -18) scale(0.81 0.81)">
  <polygon points="350 278 335 277 337 285 350 278 " shape-rendering="auto"   style="fill-rule:evenodd;"/>
</g>
<g style="stroke-width:1; stroke-linecap:round; stroke-linejoin:round; fill:#000000; fill-opacity:0.0; stroke:#0000FF; stroke-opacity:1.00;" transform="translate(-184 -18) scale(0.81 0.81)">
  <path d="M432 295 L463 316" shape-rendering="auto" />
</g>
<g style="stroke-width:1; stroke-linecap:round; stroke-linejoin:round; fill:#0000FF; fill-opacity:1.00; stroke:#0000FF; stroke-opacity:1.00;" transform="translate(-184 -18) scale(0.81 0.81)">
  <polygon points="475 325 465 313 461 320 475 325 " shape-rendering="auto"   style="fill-rule:evenodd;"/>
</g>
<g style="stroke-width:1; stroke-linecap:round; stroke-linejoin:round; fill:#000000; fill-opacity:0.0; stroke:#000000; stroke-opacity:0.0;" transform="translate(-184 -18) scale(0.81 0.81)">
  <rect x="350" y="243" width="92" height="52" rx="0.00" shape-rendering="auto"  />
  <text x="365.00" y="274.00" textLength="62" style="font-family:Times New Roman; font-weight:400; font-style:normal; font-size:9.75pt; text-decoration: none; fill:#000000; fill-opacity:1.00; stroke:#000000; stroke-opacity:1.00; stroke-width:0; white-space: pre;" xml:space="preserve" transform="rotate(0.00 365.00 274.00)">Market Size</text>
</g>
<g style="stroke-width:1; stroke-linecap:round; stroke-linejoin:round; fill:#000000; fill-opacity:0.0; stroke:#000000; stroke-opacity:0.0;" transform="translate(-184 -18) scale(0.81 0.81)">
  <rect x="258" y="187" width="82" height="22" rx="0.00" shape-rendering="auto"  />
  <text x="270.00" y="203.00" textLength="58" style="font-family:Times New Roman; font-weight:400; font-style:normal; font-size:9.75pt; text-decoration: none; fill:#000000; fill-opacity:1.00; stroke:#000000; stroke-opacity:1.00; stroke-width:0; white-space: pre;" xml:space="preserve" transform="rotate(0.00 270.00 203.00)">Population</text>
</g>
<g style="stroke-width:1; stroke-linecap:round; stroke-linejoin:round; fill:#000000; fill-opacity:0.0; stroke:#000000; stroke-opacity:0.0;" transform="translate(-184 -18) scale(0.81 0.81)">
  <rect x="228" y="275" width="88" height="40" rx="0.00" shape-rendering="auto"  />
  <text x="243.00" y="292.00" textLength="58" style="font-family:Times New Roman; font-weight:400; font-style:normal; font-size:9.75pt; text-decoration: none; fill:#000000; fill-opacity:1.00; stroke:#000000; stroke-opacity:1.00; stroke-width:0; white-space: pre;" xml:space="preserve" transform="rotate(0.00 243.00 292.00)">Population</text>
  <text x="242.00" y="307.00" textLength="61" style="font-family:Times New Roman; font-weight:400; font-style:normal; font-size:9.75pt; text-decoration: none; fill:#000000; fill-opacity:1.00; stroke:#000000; stroke-opacity:1.00; stroke-width:0; white-space: pre;" xml:space="preserve" transform="rotate(0.00 242.00 307.00)">growth rate</text>
</g>
<g style="stroke-width:1; stroke-linecap:round; stroke-linejoin:round; fill:#000000; fill-opacity:0.0; stroke:#000000; stroke-opacity:0.0;" transform="translate(-184 -18) scale(0.81 0.81)">
  <rect x="466" y="325" width="92" height="52" rx="0.00" shape-rendering="auto"  />
  <text x="489.00" y="348.00" textLength="47" style="font-family:Times New Roman; font-weight:400; font-style:normal; font-size:9.75pt; text-decoration: none; fill:#000000; fill-opacity:1.00; stroke:#000000; stroke-opacity:1.00; stroke-width:0; white-space: pre;" xml:space="preserve" transform="rotate(0.00 489.00 348.00)">Potential</text>
  <text x="480.00" y="363.00" textLength="65" style="font-family:Times New Roman; font-weight:400; font-style:normal; font-size:9.75pt; text-decoration: none; fill:#000000; fill-opacity:1.00; stroke:#000000; stroke-opacity:1.00; stroke-width:0; white-space: pre;" xml:space="preserve" transform="rotate(0.00 480.00 363.00)">e-customers</text>
</g>
<g style="stroke-width:1; stroke-linecap:round; stroke-linejoin:round; fill:#000000; fill-opacity:0.0; stroke:#000000; stroke-opacity:1.00;" transform="translate(-184 -18) scale(0.81 0.81)">
  <path d="M 332.00 344.00 L 333.50 344.00 C 334.50 344.00, 335.33 344.33, 336.00 345.00 C 336.67 345.67, 337.83 346.00, 339.50 346.00 C 341.17 346.00, 342.17 346.17, 342.50 346.50 C 342.83 346.83, 343.33 347.17, 344.00 347.50 C 344.67 347.83, 345.00 348.33, 345.00 349.00 C 345.00 349.67, 345.00 350.67, 345.00 352.00 C 345.00 353.33, 344.83 354.33, 344.50 355.00 C 344.17 355.67, 343.50 356.50, 342.50 357.50 C 341.50 358.50, 340.67 359.00, 340.00 359.00 C 339.33 359.00, 338.50 358.50, 337.50 357.50 C 336.50 356.50, 335.67 356.00, 335.00 356.00 C 334.33 356.00, 333.67 356.33, 333.00 357.00 C 332.33 357.67, 331.33 357.50, 330.00 356.50 C 328.67 355.50, 328.00 354.83, 328.00 354.50 C 328.00 354.17, 327.83 353.83, 327.50 353.50 C 327.17 353.17, 327.00 352.83, 327.00 352.50 C 327.00 352.17, 326.83 351.83, 326.50 351.50 C 326.17 351.17, 326.00 350.50, 326.00 349.50 C 326.00 348.50, 326.17 347.83, 326.50 347.50 C 326.83 347.17, 327.33 347.00, 328.00 347.00 C 328.67 347.00, 329.50 346.50, 330.50 345.50 L 332.00 344.00" style="fill:none" shape-rendering="auto" />
</g>
<g style="stroke-width:1; stroke-linecap:round; stroke-linejoin:round; fill:#000000; fill-opacity:0.0; stroke:#000000; stroke-opacity:0.0;" transform="translate(-184 -18) scale(0.81 0.81)">
  <rect x="345" y="359" width="88" height="40" rx="0.00" shape-rendering="auto"  />
  <text x="359.00" y="376.00" textLength="61" style="font-family:Times New Roman; font-weight:400; font-style:normal; font-size:9.75pt; text-decoration: none; fill:#000000; fill-opacity:1.00; stroke:#000000; stroke-opacity:1.00; stroke-width:0; white-space: pre;" xml:space="preserve" transform="rotate(0.00 359.00 376.00)">E-shoppers</text>
  <text x="359.00" y="391.00" textLength="61" style="font-family:Times New Roman; font-weight:400; font-style:normal; font-size:9.75pt; text-decoration: none; fill:#000000; fill-opacity:1.00; stroke:#000000; stroke-opacity:1.00; stroke-width:0; white-space: pre;" xml:space="preserve" transform="rotate(0.00 359.00 391.00)">growth rate</text>
</g>
<g style="stroke-width:1; stroke-linecap:round; stroke-linejoin:round; fill:#000000; fill-opacity:0.0; stroke:#000000; stroke-opacity:0.0;" transform="translate(-184 -18) scale(0.81 0.81)">
  <rect x="583" y="234" width="80" height="22" rx="0.00" shape-rendering="auto"  />
  <text x="595.00" y="250.00" textLength="56" style="font-family:Times New Roman; font-weight:400; font-style:normal; font-size:9.75pt; text-decoration: none; fill:#000000; fill-opacity:1.00; stroke:#000000; stroke-opacity:1.00; stroke-width:0; white-space: pre;" xml:space="preserve" transform="rotate(0.00 595.00 250.00)">APL users</text>
</g>
<g style="stroke-width:1; stroke-linecap:round; stroke-linejoin:round; fill:#000000; fill-opacity:0.0; stroke:#000000; stroke-opacity:1.00;" transform="translate(-184 -18) scale(0.81 0.81)">
  <path d="M 485.00 236.00 L 486.50 236.00 C 487.50 236.00, 488.33 236.33, 489.00 237.00 C 489.67 237.67, 490.83 238.00, 492.50 238.00 C 494.17 238.00, 495.17 238.17, 495.50 238.50 C 495.83 238.83, 496.33 239.17, 497.00 239.50 C 497.67 239.83, 498.00 240.33, 498.00 241.00 C 498.00 241.67, 498.00 242.67, 498.00 244.00 C 498.00 245.33, 497.83 246.33, 497.50 247.00 C 497.17 247.67, 496.50 248.50, 495.50 249.50 C 494.50 250.50, 493.67 251.00, 493.00 251.00 C 492.33 251.00, 491.50 250.50, 490.50 249.50 C 489.50 248.50, 488.67 248.00, 488.00 248.00 C 487.33 248.00, 486.67 248.33, 486.00 249.00 C 485.33 249.67, 484.33 249.50, 483.00 248.50 C 481.67 247.50, 481.00 246.83, 481.00 246.50 C 481.00 246.17, 480.83 245.83, 480.50 245.50 C 480.17 245.17, 480.00 244.83, 480.00 244.50 C 480.00 244.17, 479.83 243.83, 479.50 243.50 C 479.17 243.17, 479.00 242.50, 479.00 241.50 C 479.00 240.50, 479.17 239.83, 479.50 239.50 C 479.83 239.17, 480.33 239.00, 481.00 239.00 C 481.67 239.00, 482.50 238.50, 483.50 237.50 L 485.00 236.00" style="fill:none" shape-rendering="auto" />
</g>
<g style="stroke-width:1; stroke-linecap:round; stroke-linejoin:round; fill:#000000; fill-opacity:0.0; stroke:#000000; stroke-opacity:0.0;" transform="translate(-184 -18) scale(0.81 0.81)">
  <rect x="490" y="251" width="94" height="40" rx="0.00" shape-rendering="auto"  />
  <text x="506.00" y="268.00" textLength="62" style="font-family:Times New Roman; font-weight:400; font-style:normal; font-size:9.75pt; text-decoration: none; fill:#000000; fill-opacity:1.00; stroke:#000000; stroke-opacity:1.00; stroke-width:0; white-space: pre;" xml:space="preserve" transform="rotate(0.00 506.00 268.00)">APL market</text>
  <text x="507.00" y="283.00" textLength="61" style="font-family:Times New Roman; font-weight:400; font-style:normal; font-size:9.75pt; text-decoration: none; fill:#000000; fill-opacity:1.00; stroke:#000000; stroke-opacity:1.00; stroke-width:0; white-space: pre;" xml:space="preserve" transform="rotate(0.00 507.00 283.00)">growth rate</text>
</g>
<g style="stroke-width:1; stroke-linecap:round; stroke-linejoin:round; fill:#000000; fill-opacity:0.0; stroke:#000000; stroke-opacity:0.0;" transform="translate(-184 -18) scale(0.81 0.81)">
  <rect x="620" y="95" width="84" height="40" rx="0.00" shape-rendering="auto"  />
  <text x="634.00" y="112.00" textLength="56" style="font-family:Times New Roman; font-weight:400; font-style:normal; font-size:9.75pt; text-decoration: none; fill:#000000; fill-opacity:1.00; stroke:#000000; stroke-opacity:1.00; stroke-width:0; white-space: pre;" xml:space="preserve" transform="rotate(0.00 634.00 112.00)">Number of</text>
  <text x="637.00" y="127.00" textLength="51" style="font-family:Times New Roman; font-weight:400; font-style:normal; font-size:9.75pt; text-decoration: none; fill:#000000; fill-opacity:1.00; stroke:#000000; stroke-opacity:1.00; stroke-width:0; white-space: pre;" xml:space="preserve" transform="rotate(0.00 637.00 127.00)">deliveries</text>
</g>
<g style="stroke-width:1; stroke-linecap:round; stroke-linejoin:round; fill:#000000; fill-opacity:0.0; stroke:#000000; stroke-opacity:0.0;" transform="translate(-184 -18) scale(0.81 0.81)">
  <rect x="751" y="137" width="84" height="40" rx="0.00" shape-rendering="auto"  />
  <text x="765.00" y="154.00" textLength="56" style="font-family:Times New Roman; font-weight:400; font-style:normal; font-size:9.75pt; text-decoration: none; fill:#000000; fill-opacity:1.00; stroke:#000000; stroke-opacity:1.00; stroke-width:0; white-space: pre;" xml:space="preserve" transform="rotate(0.00 765.00 154.00)">Number of</text>
  <text x="778.00" y="169.00" textLength="30" style="font-family:Times New Roman; font-weight:400; font-style:normal; font-size:9.75pt; text-decoration: none; fill:#000000; fill-opacity:1.00; stroke:#000000; stroke-opacity:1.00; stroke-width:0; white-space: pre;" xml:space="preserve" transform="rotate(0.00 778.00 169.00)">APLs</text>
</g>
<g style="stroke-width:1; stroke-linecap:round; stroke-linejoin:round; fill:#000000; fill-opacity:0.0; stroke:#000000; stroke-opacity:0.0;" transform="translate(-184 -18) scale(0.81 0.81)">
  <rect x="325" y="23" width="110" height="40" rx="0.00" shape-rendering="auto"  />
  <text x="347.00" y="40.00" textLength="66" style="font-family:Times New Roman; font-weight:400; font-style:normal; font-size:9.75pt; text-decoration: none; fill:#000000; fill-opacity:1.00; stroke:#000000; stroke-opacity:1.00; stroke-width:0; white-space: pre;" xml:space="preserve" transform="rotate(0.00 347.00 40.00)">Initial online</text>
  <text x="330.00" y="55.00" textLength="101" style="font-family:Times New Roman; font-weight:400; font-style:normal; font-size:9.75pt; text-decoration: none; fill:#000000; fill-opacity:1.00; stroke:#000000; stroke-opacity:1.00; stroke-width:0; white-space: pre;" xml:space="preserve" transform="rotate(0.00 330.00 55.00)">purchases per year</text>
</g>
<g style="stroke-width:1; stroke-linecap:round; stroke-linejoin:round; fill:#000000; fill-opacity:0.0; stroke:#000000; stroke-opacity:0.0;" transform="translate(-184 -18) scale(0.81 0.81)">
  <rect x="678" y="233" width="128" height="52" rx="0.00" shape-rendering="auto"  />
  <text x="681.00" y="256.00" textLength="122" style="font-family:Times New Roman; font-weight:400; font-style:normal; font-size:9.75pt; text-decoration: none; fill:#000000; fill-opacity:1.00; stroke:#000000; stroke-opacity:1.00; stroke-width:0; white-space: pre;" xml:space="preserve" transform="rotate(0.00 681.00 256.00)">Avg. APL capacity per</text>
  <text x="731.00" y="271.00" textLength="23" style="font-family:Times New Roman; font-weight:400; font-style:normal; font-size:9.75pt; text-decoration: none; fill:#000000; fill-opacity:1.00; stroke:#000000; stroke-opacity:1.00; stroke-width:0; white-space: pre;" xml:space="preserve" transform="rotate(0.00 731.00 271.00)">year</text>
</g>
<g style="stroke-width:1; stroke-linecap:round; stroke-linejoin:round; fill:#000000; fill-opacity:0.0; stroke:#000000; stroke-opacity:0.0;" transform="translate(-184 -18) scale(0.81 0.81)">
  <rect x="464" y="79" width="116" height="52" rx="0.00" shape-rendering="auto"  />
  <text x="476.00" y="102.00" textLength="93" style="font-family:Times New Roman; font-weight:400; font-style:normal; font-size:9.75pt; text-decoration: none; fill:#000000; fill-opacity:1.00; stroke:#000000; stroke-opacity:1.00; stroke-width:0; white-space: pre;" xml:space="preserve" transform="rotate(0.00 476.00 102.00)">Online purchases</text>
  <text x="501.00" y="117.00" textLength="43" style="font-family:Times New Roman; font-weight:400; font-style:normal; font-size:9.75pt; text-decoration: none; fill:#000000; fill-opacity:1.00; stroke:#000000; stroke-opacity:1.00; stroke-width:0; white-space: pre;" xml:space="preserve" transform="rotate(0.00 501.00 117.00)">per year</text>
</g>
<g style="stroke-width:1; stroke-linecap:round; stroke-linejoin:round; fill:#000000; fill-opacity:0.0; stroke:#000000; stroke-opacity:0.0;" transform="translate(-184 -18) scale(0.81 0.81)">
  <rect x="352" y="105" width="102" height="40" rx="0.00" shape-rendering="auto"  />
  <text x="360.00" y="122.00" textLength="87" style="font-family:Times New Roman; font-weight:400; font-style:normal; font-size:9.75pt; text-decoration: none; fill:#000000; fill-opacity:1.00; stroke:#000000; stroke-opacity:1.00; stroke-width:0; white-space: pre;" xml:space="preserve" transform="rotate(0.00 360.00 122.00)">Online purchase</text>
  <text x="373.00" y="137.00" textLength="61" style="font-family:Times New Roman; font-weight:400; font-style:normal; font-size:9.75pt; text-decoration: none; fill:#000000; fill-opacity:1.00; stroke:#000000; stroke-opacity:1.00; stroke-width:0; white-space: pre;" xml:space="preserve" transform="rotate(0.00 373.00 137.00)">growth rate</text>
</g>
<g style="stroke-width:1; stroke-linecap:round; stroke-linejoin:round; fill:#000000; fill-opacity:0.0; stroke:#000000; stroke-opacity:0.0;" transform="translate(-184 -18) scale(0.81 0.81)">
  <rect x="386" y="416" width="80" height="40" rx="0.00" shape-rendering="auto"  />
  <text x="399.00" y="433.00" textLength="55" style="font-family:Times New Roman; font-weight:400; font-style:normal; font-size:9.75pt; text-decoration: none; fill:#000000; fill-opacity:1.00; stroke:#000000; stroke-opacity:1.00; stroke-width:0; white-space: pre;" xml:space="preserve" transform="rotate(0.00 399.00 433.00)">E-shopper</text>
  <text x="412.00" y="448.00" textLength="29" style="font-family:Times New Roman; font-weight:400; font-style:normal; font-size:9.75pt; text-decoration: none; fill:#000000; fill-opacity:1.00; stroke:#000000; stroke-opacity:1.00; stroke-width:0; white-space: pre;" xml:space="preserve" transform="rotate(0.00 412.00 448.00)">share</text>
</g>
<g style="stroke-width:1; stroke-linecap:round; stroke-linejoin:round; fill:#000000; fill-opacity:0.0; stroke:#000000; stroke-opacity:0.0;" transform="translate(-184 -18) scale(0.81 0.81)">
  <rect x="495" y="148" width="94" height="40" rx="0.00" shape-rendering="auto"  />
  <text x="511.00" y="165.00" textLength="62" style="font-family:Times New Roman; font-weight:400; font-style:normal; font-size:9.75pt; text-decoration: none; fill:#000000; fill-opacity:1.00; stroke:#000000; stroke-opacity:1.00; stroke-width:0; white-space: pre;" xml:space="preserve" transform="rotate(0.00 511.00 165.00)">APL market</text>
  <text x="528.00" y="180.00" textLength="29" style="font-family:Times New Roman; font-weight:400; font-style:normal; font-size:9.75pt; text-decoration: none; fill:#000000; fill-opacity:1.00; stroke:#000000; stroke-opacity:1.00; stroke-width:0; white-space: pre;" xml:space="preserve" transform="rotate(0.00 528.00 180.00)">share</text>
</g>
<g style="stroke-width:1; stroke-linecap:round; stroke-linejoin:round; fill:#000000; fill-opacity:0.0; stroke:#000000; stroke-opacity:1.00;" transform="translate(-184 -18) scale(0.81 0.81)">
  <path d="M389 349 L445 349" shape-rendering="auto" />
  <path d="M445 353 L389 353" shape-rendering="auto" />
</g>
<g style="stroke-width:1; stroke-linecap:round; stroke-linejoin:round; fill:#000000; fill-opacity:1.00; stroke:#000000; stroke-opacity:1.00;" transform="translate(-184 -18) scale(0.81 0.81)">
  <polygon points="466 351 445 345 445 357 466 351 " shape-rendering="auto"   style="fill-rule:evenodd;"/>
</g>
<g style="stroke-width:1; stroke-linecap:round; stroke-linejoin:round; fill:#000000; fill-opacity:0.0; stroke:#000000; stroke-opacity:1.00;" transform="translate(-184 -18) scale(0.81 0.81)">
  <path d="M389 353 L345 353" shape-rendering="auto" />
  <path d="M345 349 L389 349" shape-rendering="auto" />
</g>
<g style="stroke-width:1; stroke-linecap:round; stroke-linejoin:round; fill:#000000; fill-opacity:0.0; stroke:#000000; stroke-opacity:1.00;" transform="translate(-184 -18) scale(0.81 0.81)">
  <path d="M537 241 L562 241" shape-rendering="auto" />
  <path d="M562 245 L537 245" shape-rendering="auto" />
</g>
<g style="stroke-width:1; stroke-linecap:round; stroke-linejoin:round; fill:#000000; fill-opacity:1.00; stroke:#000000; stroke-opacity:1.00;" transform="translate(-184 -18) scale(0.81 0.81)">
  <polygon points="583 243 562 237 562 249 583 243 " shape-rendering="auto"   style="fill-rule:evenodd;"/>
</g>
<g style="stroke-width:1; stroke-linecap:round; stroke-linejoin:round; fill:#000000; fill-opacity:0.0; stroke:#000000; stroke-opacity:1.00;" transform="translate(-184 -18) scale(0.81 0.81)">
  <path d="M537 245 L498 245" shape-rendering="auto" />
  <path d="M498 241 L537 241" shape-rendering="auto" />
</g>
<g style="stroke-width:1; stroke-linecap:round; stroke-linejoin:round; fill:#000000; fill-opacity:0.0; stroke:#000000; stroke-opacity:1.00;" transform="translate(-184 -18) scale(0.81 0.81)">
  <path d="M403 95 L443 95" shape-rendering="auto" />
  <path d="M443 99 L403 99" shape-rendering="auto" />
</g>
<g style="stroke-width:1; stroke-linecap:round; stroke-linejoin:round; fill:#000000; fill-opacity:1.00; stroke:#000000; stroke-opacity:1.00;" transform="translate(-184 -18) scale(0.81 0.81)">
  <polygon points="464 97 443 91 443 103 464 97 " shape-rendering="auto"   style="fill-rule:evenodd;"/>
</g>
<g style="stroke-width:1; stroke-linecap:round; stroke-linejoin:round; fill:#000000; fill-opacity:0.0; stroke:#000000; stroke-opacity:1.00;" transform="translate(-184 -18) scale(0.81 0.81)">
  <path d="M266 259 L278 275" shape-rendering="auto" />
  <path d="M278 275 L266 275" shape-rendering="auto" />
  <path d="M266 275 L278 259" shape-rendering="auto" />
  <path d="M278 259 L266 259" shape-rendering="auto" />
  <path d="M383 343 L395 359" shape-rendering="auto" />
  <path d="M395 359 L383 359" shape-rendering="auto" />
  <path d="M383 359 L395 343" shape-rendering="auto" />
  <path d="M395 343 L383 343" shape-rendering="auto" />
  <path d="M531 235 L543 251" shape-rendering="auto" />
  <path d="M543 251 L531 251" shape-rendering="auto" />
  <path d="M531 251 L543 235" shape-rendering="auto" />
  <path d="M543 235 L531 235" shape-rendering="auto" />
  <path d="M397 89 L409 105" shape-rendering="auto" />
  <path d="M409 105 L397 105" shape-rendering="auto" />
  <path d="M397 105 L409 89" shape-rendering="auto" />
  <path d="M409 89 L397 89" shape-rendering="auto" />
</g>
</svg>
